<svg xmlns="http://www.w3.org/2000/svg" viewBox="0 0 539.36 662.75"><defs><style>.cls-1{fill:#fff;}</style></defs><title>lang</title><g id="Layer_2" data-name="Layer 2"><g id="Layer_1-2" data-name="Layer 1"><path class="cls-1" d="M468.35,587.68H430.81c-2.76,0-5.52-.36-5.53,3.94s2.76,4,5.51,4c13.65,0,27.31.34,40.94-.14,6.61-.23,9.79,1.13,8.79,8.49a64.81,64.81,0,0,0,0,14.31c.89,10.11-4.44,16.22-12.55,20.74-7.72,4.3-16.21,6-24.84,6.73-18,1.49-35.94,2-53.17-4.73-14.59-5.67-19.79-13.57-19.78-29.06,0-14.56,0-29.12,0-43.68.06-20.07,11.57-31.78,31.84-32,17.74-.21,35.49,0,53.23-.08,20.41-.13,32-11.74,32.29-32.24.1-7.28.18-14.56,0-21.84-.11-3.87,1.3-5.52,5.14-5a4.53,4.53,0,0,0,.68,0c30.17-.76,41.37,9.09,45.11,41.6,1.52,13.25,1.51,26.78-2.07,40-4.17,15.35-15.14,30.48-37.28,29.17C488.85,587.18,478.58,587.68,468.35,587.68Zm-11.5,21.69c-5.37-.13-10.24,4.48-10.27,9.72a10,10,0,0,0,9.51,9.7c5.85.24,10.26-3.67,10.44-9.28A9.63,9.63,0,0,0,456.84,609.37Z"/><path class="cls-1" d="M383.26,478.45h36.85c2.78,0,5.61.3,5.61-3.93s-2.67-4-5.53-4c-14.79,0-29.58-.17-44.36.11-4.61.09-6-1.45-5.77-5.85.29-5.9.27-11.83,0-17.74-.35-8.74,3.8-14.72,11-19a49.65,49.65,0,0,1,16.57-6,139.86,139.86,0,0,1,54.22.29,46.86,46.86,0,0,1,16.95,6.91c7.42,5,11.69,11.71,11.57,21.07-.21,16.15,0,32.3-.07,48.46-.06,18.48-10,29.63-28.57,30.5-17.71.83-35.47.41-53.21.49-24.43.11-35.43,11.07-35.48,35.42,0,6.37-.09,12.74,0,19.11.06,3.23-.56,5.15-4.47,4.94-5.44-.29-11,.37-16.37-.2-14.38-1.52-22-11.39-26.12-23.82A100.21,100.21,0,0,1,314.84,506c5.39-19.24,17.17-27.6,37-27.57Q367.56,478.47,383.26,478.45Zm11.12-41.37c-5.29-.12-10.24,4.57-10.31,9.77a10,10,0,0,0,10,9.85,9.52,9.52,0,0,0,9.81-9.25A9.9,9.9,0,0,0,394.38,437.08Z"/><path class="cls-1" d="M26.67,437.86V662.75H251.55V437.86ZM148.46,617.73c-2.54,18.35-17.51,28.41-36.92,24.91-11.83-2.13-19.79-8-24.41-18.57l16.36-10c1.29,1.82,2.45,3.56,3.72,5.22,3.46,4.53,8.59,6.26,13.67,4.81,5.53-1.58,6.87-5.79,6.9-10.81q.17-32.24.29-64.48c0-2.15,0-4.29,0-6.87h20.47c.08,1.63.24,3.24.24,4.85q.05,31.25.05,62.49A62.23,62.23,0,0,1,148.46,617.73ZM231.4,619c-1.83,12.28-9.95,19.11-21.45,22.37-17.39,4.93-36-.61-46.46-13.84-1.22-1.54-2.2-3.28-3.75-5.63l16.66-9.66c1.57,1.87,2.88,3.54,4.31,5.1,5.93,6.52,13.23,8.58,21.73,6.49,4.11-1,7.4-3,8.24-7.62.9-4.93-1.22-8.48-5.38-10.8-3.48-1.94-7.15-3.53-10.73-5.27-4.49-2.17-9.17-4-13.43-6.56-12.46-7.47-17.77-20.09-14.29-33.12,3.27-12.25,14.15-20,28.69-20.49,13.51-.43,23.06,4.8,30,16.75l-15.46,10c-2.29-2.26-4.24-4.87-6.79-6.53-4.19-2.73-9.2-3.29-13,.09A11.29,11.29,0,0,0,187,568.8c.3,2.61,2.86,5.59,5.24,7.17,3.84,2.53,8.41,3.92,12.56,6a136.75,136.75,0,0,1,14,7.59C229.43,596.54,233.22,606.83,231.4,619Z"/><path class="cls-1" d="M404.51,317.67c0,6,.05,12,0,17.94,0,2,.64,4.88-2.57,4.9-2.5,0-6.19,1.93-7.1-2.42-.87-4.13-2.71-2.1-4.41-.93a24.61,24.61,0,0,1-15.59,4.25c-6.79-.31-12.08-2.61-14.6-9.41a17.3,17.3,0,0,1,4.42-19.05c5.67-5.14,12.69-6.13,20-6.61,2.86-.19,7.33,1.52,7.66-3.9.32-5.21-.92-9.56-6.79-11s-11.39-.07-17,1.31c-2.27.56-4.4,2.06-5.5-1.83-1-3.47.44-4.72,3.29-5.73a48.23,48.23,0,0,1,23.29-2.63c9.48,1.38,14,6.69,14.82,16.49,0,.48.06,1,.06,1.43Q404.5,309.06,404.51,317.67Zm-12.14,2.88c-.59-1.63,1.27-5.08-1.07-6-4.44-1.76-9.27-1-13.83.6-3.41,1.19-5.61,3.29-6.11,7.07-.82,6.23,1.91,10.08,7.6,10.45C386.87,333.19,392.34,328.49,392.36,320.56Z"/><path class="cls-1" d="M511.19,317.32c0,6,.08,12,0,17.94,0,1.93,1.09,4.85-2.12,5.2-2.61.28-6.27,1.64-7.35-2.23-1-3.55-2.33-2.64-4.36-1.2a23.16,23.16,0,0,1-14.1,4.42c-9-.12-14.84-3.83-16.48-10.83-2.12-9,1.13-16.56,9-20.62,5-2.57,10.37-3.29,15.93-3.68,2.76-.2,7.4,2.19,7.83-3.4s-1.32-10.08-7.26-11.59c-5.25-1.33-10.43-.07-15.6,1-2.46.52-5.45,3.14-6.77-1.71s2.25-4.95,5.1-5.94a47.38,47.38,0,0,1,20.5-2.32c10.05,1,15.47,6.89,15.73,17C511.31,305.36,511.19,311.34,511.19,317.32ZM499.28,321c2.73-8.06-2.82-7.57-8.23-7.17-5.68.42-11.26,1.29-12.81,8-.77,3.33-.39,6.88,2.74,9.1,4.22,3,8.63,1.89,12.93-.06C498,329.06,500.66,326.36,499.28,321Z"/><path class="cls-1" d="M449.94,0c5.87,7,6.24,14.82,4.2,22.88-3.5,13.81-12.55,24-22.72,33.28-6.34,5.82-13.59,10.62-19.13,17.32C401.81,86.14,401,97,409.61,110.95c3.71,6,7.71,11.76,10.79,18.19-10.86-9-21.17-18.25-27.27-31.23-4.1-8.71-2.86-16.67,2.93-24.18,6.21-8.05,14.19-14.18,22-20.47,4.66-3.75,9.37-7.46,13.84-11.42C444.4,30.78,452.35,17.73,449.94,0Z"/><path class="cls-1" d="M437.48,326.92c5.31-12.82,7.89-25.4,10.29-38,.87-4.61,7.78-7.76,11.75-5.32,2,1.21,1.08,2.94.75,4.48a276.08,276.08,0,0,1-14.66,47.88c-2.69,6.49-7.55,4.18-11.92,4.78s-5.62-2.16-6.67-5.66c-4.45-14.87-9.15-29.66-13.54-44.55-.65-2.21-3.91-6.07.7-6.77,3.68-.56,9.2-3.21,11.21,3.75C429.11,300.32,433.21,313,437.48,326.92Z"/><path class="cls-1" d="M365.16,209.27c-5.66,2.15-9.63,3.56-13.53,5.17-1.72.71-3.93,1.53-3.9,3.73s2.51,2.68,4.19,3.31a80.06,80.06,0,0,0,21,4.36c37.8,3.38,75.51,3,112.92-4.05,6.31-1.18,13.62-1.66,16.19-9.6,2.92,4.19,2.74,5.4-2.15,8.38-7.47,4.54-15.91,6.57-24.33,8.23-44.7,8.8-89.44,7-134.15,0a3.39,3.39,0,0,1-.7-.18c-3.43-1.33-8.55-1.06-8.92-5.81-.35-4.37,4.13-6.06,7.41-7.87C347.17,210.49,355.12,208.7,365.16,209.27Z"/><path class="cls-1" d="M472.37,50.4c-2.35,4-5.76,5-8.32,6.92-4.93,3.77-10.16,7.18-14.82,11.26-13.49,11.83-14.74,19.59-3.59,33.71,10.91,13.82,7.44,26.15-8.28,36.14-1.56-1-.38-2,.09-2.88,3.55-6.94,2.75-13.39-2.26-19.29-19.52-23-11.57-40.82,10.41-54.3C453.67,57,462,52.6,472.37,50.4Z"/><path class="cls-1" d="M350.34,302.64c0,11.46.13,22.93,0,34.39-.15,10.35-5.72,17.3-14.47,22.24-3.7,2.09-5.63.18-7.74-2.4-2.63-3.21.41-4.07,2.1-5.4a19.28,19.28,0,0,0,7.57-14.75c1.43-22.44.42-44.89.53-67.33,0-5.2,1.17-7.26,6.74-7,4.4.2,5.74,1.54,5.65,5.87-.25,11.46-.08,22.93-.08,34.4Z"/><path class="cls-1" d="M462.6,202.25c-24.48,8.88-48,11.21-72.1,4.35a34,34,0,0,1-7.82-3.47c-2.27-1.34-4.6-3.24-3.46-6.34,1.28-3.46,4.67-4.55,7.82-5.71a1.42,1.42,0,0,1,1.25.14c9.58,11.79,23.06,5.49,34.74,7.25,4.57.69,9.51-.63,14.22-1.4C449.53,195.09,449.51,195,462.6,202.25Z"/><path class="cls-1" d="M386.74,136.06c-5.38,2.17-9.3,3.68-13.16,5.33-1.52.65-3.31,1.44-3.32,3.37,0,2.65,2.5,2.63,4.19,3,12.51,2.53,25.16,2.41,37.83,1.9a482.73,482.73,0,0,0,60.5-5.78c-3.34,3.75-6.28,5.43-9.75,6.15a281.84,281.84,0,0,1-101.13,3,3.34,3.34,0,0,1-.71-.1c-3.38-1.33-8.8-.87-9.1-5.33-.28-4.12,4.92-4.61,8.05-5.9C368.11,138.4,376.05,134.63,386.74,136.06Z"/><path class="cls-1" d="M466.05,175.66c-26.51,6.84-52.86,9.82-79.7,4.53a54.25,54.25,0,0,1-8.88-2.68c-2.9-1.12-6.15-2.46-5.73-6.35.39-3.57,3.75-4.67,6.47-6.09,1.24-.65,3.32-1.23,3.41.71.32,6.7,5.51,5.59,9.43,6.1a172.72,172.72,0,0,0,55.63-1.46C453.9,169,460.24,169.08,466.05,175.66Z"/><path class="cls-1" d="M514.61,225.55c-3.19,7-8.34,9-13.31,11-14.6,5.88-30,7.76-45.56,8.84-25.8,1.79-51.58,1.83-77.23-2.68,22.83-1.12,45.73.77,68.52-1.45S492.45,236.58,514.61,225.55Z"/><path class="cls-1" d="M480,178.44c6.15-4.08,12.36-8,17.37-13.44s9.74-11.58,6.92-19.84c-2.75-8.06-9.1-10.46-17-10-.53,0-1.11-.81-2-1.5,5.2-2.06,10-2.73,14.94-1.53,15.24,3.66,20.17,18.25,10.26,30.4C504.32,170.06,490.82,177.37,480,178.44Z"/><path class="cls-1" d="M252.36,158.38a132.29,132.29,0,0,0-58.51-59.27,130.59,130.59,0,0,0-43.15-13.53c-1.89-.26-3.79-.39-5.68-.62-.35,0-.94.23-1-.49H122.21c0,.72-.62.46-1,.49A133.18,133.18,0,0,0,14.54,157.1a133.07,133.07,0,0,0-.64,119.66A132.29,132.29,0,0,0,72.41,336a130.59,130.59,0,0,0,43.15,13.53c1.89.26,3.79.39,5.68.62.35,0,.94-.23,1,.49H144c0-.72.62-.46,1-.49A133.18,133.18,0,0,0,251.71,278a133.06,133.06,0,0,0,.64-119.66ZM87.48,241.1a26.06,26.06,0,0,1-7.8,1.18c-5.33,0-10.66,0-16,0-1,0-1.41.17-1.59,1.26-.93,5.46-2,10.89-3,16.34-.13.7-.29,1-1.11,1-5-.15-10-.26-14.93-.36-1.16,0-.66-.74-.56-1.24q2-10.25,4-20.5,4.78-24.12,9.54-48.24c.17-.88.49-1.11,1.33-1.1,5.41,0,10.83,0,16.24,0v0c5.28,0,10.57-.16,15.85,0s10.21,1.46,14.33,5,5.62,8,5.94,13.1C110.8,223.44,101.41,236.83,87.48,241.1Zm73.89,2c-2.64,0-5.28,0-7.93,0s-5.29,0-7.93,0c-.86,0-1-.29-.83-1.07.79-4.11,1.53-8.23,2.3-12.35s1.58-8.13,2.3-12.21c.6-3.37,1.48-6.69,1.59-10.16.08-2.4-1-3.75-3.47-4-5-.5-9.94-.12-14.91-.22-.65,0-.61.4-.69.83q-3.08,15.27-6.18,30.54c-.5,2.47-1.09,4.92-1.52,7.4-.12.69-.35.84-1,.85-2.73,0-5.45.07-8.18.18-2.11.09-4.22.25-6.33.17-.76,0-1,0-.78-1,1.21-6,2.29-12.07,3.53-18.08,1.63-7.88,3.1-15.79,4.72-23.67s3.07-15.79,4.6-23.68c.27-1.39.6-2.76.86-4.15.12-.66.41-.89,1.12-.89q7.41.05,14.82,0c.78,0,.9.18.74,1-1.11,5.68-2.15,11.37-3.21,17.06-.19,1,.61.64,1,.64,4.76,0,9.53,0,14.3,0a26.86,26.86,0,0,1,11.55,2.59A11.79,11.79,0,0,1,168.55,206c-1.2,6.93-2.29,13.87-3.45,20.81-.85,5.12-1.74,10.24-2.58,15.37C162.4,242.93,162,243.06,161.37,243.06Zm55.17-5.1a27.39,27.39,0,0,1-15.28,4.32c-5.24-.05-10.49,0-15.73,0-.87,0-1.17.24-1.32,1.1-1,5.45-2,10.89-3,16.35-.16.89-.42,1.22-1.38,1.19-5.1-.16-10.21-.25-15.5-.37,1.6-8.1,3.16-16,4.73-24q4.51-22.85,9-45.71c.19-.95.42-1.43,1.61-1.42,10.61.08,21.23,0,31.84.13a22.52,22.52,0,0,1,13.94,4.59,16.71,16.71,0,0,1,6.31,12.64C232.63,220,227.93,230.69,216.54,238Z"/><path class="cls-1" d="M88.76,203.91a11.41,11.41,0,0,0-4.68-1.44c-4.28-.4-8.57-.09-12.85-.21-.84,0-1,.4-1.07,1.08-1.38,8.09-2.78,16.18-4.23,24.27-.18,1,.2,1.11,1,1.1,1.56,0,3.11,0,4.67,0a22.86,22.86,0,0,0,9-.46c4.47-1.21,7.92-3.61,9.81-7.94a25.07,25.07,0,0,0,2-10.49A6.64,6.64,0,0,0,88.76,203.91Z"/><path class="cls-1" d="M206.64,202.47c-2.33-.25-4.67-.18-7-.2-1.91,0-3.81,0-5.71,0-.86,0-1.16.24-1.31,1.12q-1.93,11.44-4,22.87c-.42,2.39-.46,2.47,1.93,2.46,3.37,0,6.73.62,10.09,0,5.08-.89,9.43-2.88,11.87-7.78a23.64,23.64,0,0,0,2.25-8.87C215.22,206.3,212.47,203.09,206.64,202.47Z"/></g></g></svg>